<svg xmlns="http://www.w3.org/2000/svg" viewBox="0 0 335.25 257.4373"><title>Asset 1</title><g id="Layer_2" data-name="Layer 2"><g id="Layer_1-2" data-name="Layer 1"><circle cx="167.625" cy="142.37726" r="67.71762" fill="none" stroke="#1a3464" stroke-miterlimit="10" stroke-width="15"/><path d="M317.794,249.9373H17.456c-5.47578,0-9.956-3.81411-9.956-8.47579V55.34736c0-4.66169,4.48018-8.47579,9.956-8.47579H83.575a17.40057,17.40057,0,0,0,14.13532-6.72763L108.914,16.37682a14.40256,14.40256,0,0,1,5.20835-6.06182,18.57288,18.57288,0,0,1,9.9401-2.815h87.30608a18.59964,18.59964,0,0,1,9.80785,2.73165,14.4177,14.4177,0,0,1,5.22238,5.90892l10.23946,20.762a17.57146,17.57146,0,0,0,14.62648,9.94025q.52673.02862,1.059.02872H317.794c5.47578,0,9.956,3.8141,9.956,8.47579V241.46151C327.75,246.12319,323.26982,249.9373,317.794,249.9373Z" fill="none" stroke="#1a3464" stroke-miterlimit="10" stroke-width="15"/><rect x="24.84969" y="19.88012" width="54.83301" height="7.5" fill="#1a3464"/></g></g></svg>