<svg xmlns="http://www.w3.org/2000/svg" viewBox="0 0 45.43269 45.43269"><g id="info-icon"><path id="icon" d="M22.71538,0A22.71635,22.71635,0,1,0,45.43269,22.71538,22.71682,22.71682,0,0,0,22.71538,0Zm4.72885,35.20577q-1.75385.69231-2.79808,1.05385a7.38179,7.38179,0,0,1-2.42692.36346,4.83681,4.83681,0,0,1-3.30192-1.03654,3.34483,3.34483,0,0,1-1.175-2.62885,9.54777,9.54777,0,0,1,.08654-1.26731c.05961-.43077.15384-.91538.28269-1.45961L19.575,25.06154c.12885-.49616.24038-.96731.32885-1.40577a6.23332,6.23332,0,0,0,.13076-1.21731,1.87475,1.87475,0,0,0-.40769-1.37885,2.3159,2.3159,0,0,0-1.56346-.38654A4.10309,4.10309,0,0,0,16.9,20.84615c-.39423.12115-.73654.23077-1.01731.33846l.38654-1.59231q1.43653-.58557,2.75-1.00192A8.1244,8.1244,0,0,1,21.5,18.17115a4.74674,4.74674,0,0,1,3.25385,1.01923,3.38634,3.38634,0,0,1,1.1423,2.64615q0,.3375-.07884,1.18654a7.94007,7.94007,0,0,1-.29231,1.55962l-1.45577,5.15384c-.11923.41346-.225.88654-.32115,1.41539a7.48429,7.48429,0,0,0-.14039,1.20384,1.729,1.729,0,0,0,.45962,1.4,2.57282,2.57282,0,0,0,1.59038.37308,4.613,4.613,0,0,0,1.20385-.18654,6.844,6.844,0,0,0,.97307-.32692Zm-.25769-20.91923a3.47445,3.47445,0,0,1-2.45192.94615,3.51063,3.51063,0,0,1-2.46154-.94615,3.02046,3.02046,0,0,1-1.025-2.29423,3.05093,3.05093,0,0,1,1.025-2.3,3.48546,3.48546,0,0,1,2.46154-.95577,3.44641,3.44641,0,0,1,2.45192.95577,3.0982,3.0982,0,0,1,0,4.59423Z"/></g></svg>