<svg xmlns="http://www.w3.org/2000/svg" viewBox="0 0 225 225"><g id="city-logo" data-name="city-logo 2"><g id="logo"><path id="_8" data-name="8" d="M91.07143,0,112.5,21.42857,133.92857,0V42.85714l21.42857-21.42857V64.28571L133.92857,85.71429,112.5,64.28571,91.07143,85.71429,69.64286,64.28571V21.42857L91.07143,42.85714Z" fill="#1e59ae"/><path id="_7" data-name="7" d="M50.30227,35.412,36.72863,21.8378v15.153H21.57622L35.15044,50.56385,21.42857,64.28571H64.28571V21.42857Z" fill="#1e59ae"/><path id="_6" data-name="6" d="M0,133.92857,21.42857,112.5,0,91.07143H42.85714L21.42857,69.64286H64.28571L85.71429,91.07143,64.28571,112.5l21.42858,21.42857L64.28571,155.35714H21.42857l21.42857-21.42857Z" fill="#1e59ae"/><path id="_5" data-name="5" d="M64.28571,160.71429H21.42857L35.412,174.69773,21.8378,188.272H36.99021v15.15183l13.57422-13.57422,13.72128,13.72187Z" fill="#1e59ae"/><path id="_4" data-name="4" d="M133.92857,225,112.5,203.57143,91.07143,225V182.14286L69.64286,203.57143V160.71429l21.42857-21.42858L112.5,160.71429l21.42857-21.42858,21.42857,21.42858v42.85714l-21.42857-21.42857Z" fill="#1e59ae"/><path id="_3" data-name="3" d="M203.57143,160.71429H160.71429v42.85714L174.69773,189.588,188.272,203.1622v-15.153h15.15183l-13.57422-13.57306Z" fill="#1e59ae"/><path id="_2" data-name="2" d="M225,91.07143,203.57143,112.5,225,133.92857H182.14286l21.42857,21.42857H160.71429l-21.42858-21.42857L160.71429,112.5,139.28571,91.07143l21.42858-21.42857h42.85714L182.14286,91.07143Z" fill="#1e59ae"/><path id="_1" data-name="1" d="M189.588,50.30227,203.1622,36.72805h-15.153V21.57622L174.43615,35.15044,160.71429,21.42857V64.28571h42.85714Z" fill="#1e59ae"/></g></g></svg>