<?xml version="1.0" standalone="no"?>
<!DOCTYPE svg PUBLIC "-//W3C//DTD SVG 20010904//EN"
 "http://www.w3.org/TR/2001/REC-SVG-20010904/DTD/svg10.dtd">
<svg version="1.0" xmlns="http://www.w3.org/2000/svg"
 width="700.000000pt" height="700.000000pt" viewBox="0 0 700.000000 700.000000"
 preserveAspectRatio="xMidYMid meet">
<metadata>
Created by potrace 1.11, written by Peter Selinger 2001-2013
</metadata>
<g transform="translate(0.000000,700.000000) scale(0.100000,-0.100000)"
fill="#000000" stroke="none">
<path d="M2839 6933 c0 -47 -7 -868 -8 -1166 -1 -46 -5 -77 -11 -75 -5 2 -146
138 -314 302 -168 165 -312 304 -321 308 -18 11 -16 71 -18 -736 l-1 -569 333
-329 333 -330 86 84 c47 46 197 194 334 330 l248 247 264 -262 c145 -144 295
-293 334 -331 l70 -68 333 330 333 330 1 665 c0 366 -1 665 -2 664 -1 -1 -141
-139 -312 -306 -170 -167 -319 -310 -330 -318 -21 -14 -21 -14 -22 134 0 81
-1 372 -2 645 -1 274 -6 498 -10 498 -5 0 -153 -143 -329 -317 -175 -175 -323
-318 -328 -318 -5 0 -155 145 -334 323 l-326 323 -1 -58z"/>
<path d="M1780 6115 c-118 -118 -217 -212 -220 -209 -108 112 -403 394 -407
390 -4 -3 -7 -102 -7 -220 -1 -119 -4 -217 -7 -220 -3 -3 -103 -6 -222 -6
-119 -1 -219 -5 -221 -9 -3 -4 85 -99 196 -211 l200 -203 -213 -213 -214 -214
668 0 668 0 -2 665 c-1 366 -2 665 -3 665 -1 0 -98 -97 -216 -215z"/>
<path d="M5000 5667 l0 -667 667 0 668 0 -217 218 -217 217 200 202 c110 112
198 206 196 210 -3 5 -101 9 -218 11 -117 1 -214 4 -217 7 -7 7 -11 75 -13
268 -1 97 -5 177 -9 177 -4 0 -98 -91 -209 -201 l-203 -202 -214 214 -214 214
0 -668z"/>
<path d="M808 4832 c-65 -1 -118 -6 -118 -10 0 -4 142 -151 315 -327 173 -175
315 -322 315 -325 0 -3 -262 -5 -583 -5 -320 0 -615 -1 -654 -3 l-73 -4 323
-325 c177 -178 322 -328 322 -333 0 -5 -143 -153 -319 -330 -175 -177 -316
-324 -313 -327 3 -3 292 -6 642 -8 350 -2 638 -5 641 -8 6 -6 -87 -104 -418
-441 -115 -116 -208 -213 -208 -216 0 -3 298 -5 661 -5 l661 1 330 333 330
333 -68 70 c-38 39 -187 189 -331 334 l-263 264 273 274 c149 151 298 301 331
334 l58 60 -330 333 -330 333 -538 1 c-297 0 -592 -1 -656 -3z"/>
<path d="M4685 4518 c-174 -172 -322 -322 -330 -334 -13 -21 2 -37 315 -353
l329 -331 -282 -284 c-155 -156 -304 -307 -330 -334 l-49 -49 334 -335 333
-335 649 3 c357 2 651 6 654 8 4 5 -65 79 -341 360 -93 94 -198 200 -233 236
l-63 65 649 1 c358 1 653 4 656 7 4 3 -137 151 -312 327 -176 177 -319 325
-319 330 0 5 146 155 323 334 l324 326 -44 1 c-23 0 -315 2 -647 4 -332 3
-606 6 -608 9 -5 4 129 145 392 412 105 106 201 204 214 218 l24 26 -661 0
-662 0 -315 -312z"/>
<path d="M2494 2327 l-331 -332 3 -555 c3 -767 3 -750 12 -750 4 0 125 116
269 257 339 335 383 377 383 366 1 -4 2 -295 4 -646 2 -351 6 -641 10 -644 4
-4 151 137 326 313 176 175 324 319 329 319 5 0 156 -145 335 -323 l326 -323
1 38 c1 79 8 925 8 1091 1 94 4 172 9 172 4 0 136 -127 294 -282 158 -156 304
-300 325 -320 l38 -37 -1 666 -1 666 -332 330 -333 330 -55 -54 c-30 -30 -181
-179 -334 -331 l-279 -277 -332 329 c-182 182 -334 330 -337 329 -3 0 -155
-150 -337 -332z"/>
<path d="M882 1783 l217 -218 -200 -203 c-110 -111 -198 -206 -195 -210 2 -4
103 -9 222 -10 120 -2 219 -4 221 -5 1 -2 3 -103 4 -225 1 -122 5 -222 8 -222
4 0 98 90 210 201 l204 201 213 -213 214 -214 0 668 0 667 -667 0 -668 0 217
-217z"/>
<path d="M5000 1333 l0 -668 218 218 217 217 211 -211 211 -211 1 83 c1 382 0
376 25 382 12 3 113 7 225 8 111 1 202 5 202 9 0 3 -91 98 -201 209 l-201 203
213 214 214 214 -668 0 -667 0 0 -667z"/>
</g>
</svg>
