<?xml version="1.0" encoding="utf-8"?>
<!-- Generator: Adobe Illustrator 22.1.0, SVG Export Plug-In . SVG Version: 6.00 Build 0)  -->
<svg version="1.1" id="cleanup-icon" xmlns="http://www.w3.org/2000/svg" xmlns:xlink="http://www.w3.org/1999/xlink" x="0px"
	 y="0px" width="150px" height="150px" viewBox="0 0 150 150" enable-background="new 0 0 150 150" xml:space="preserve">
<g>
	<polygon fill="#FFFFFF" points="70.1513672,87.2226562 51.8505859,86.8007812 58.5454102,74.9868164 64.902832,75.6958008 
		57.2211914,61.7539062 41.2124023,61.3857422 44.3774414,67.1298828 38.8320312,76.9160156 52.8730469,102.3984375 
		69.5288086,103.1787109 65.3173828,95.5341797 	"/>
	<polygon fill="#FFFFFF" points="65.8925781,62.1875 75.0932617,46.362793 82.2099609,57.9277344 78.5214844,63.1538086 
		94.4384766,63.1538086 102.4873047,49.3105469 95.9296875,49.3105469 90.0341797,39.7304688 60.9389648,39.7304688 
		52.2182617,53.9423828 60.9458008,53.9423828 	"/>
	<path fill="#FFFFFF" d="M75,0C33.5786133,0,0,33.5786133,0,75s33.5786133,75,75,75s75-33.5786133,75-75S116.4213867,0,75,0z
		 M59.8198242,37.7304688h31.331543l5.8955078,9.5800781h8.9169922l-10.375,17.8432617H74.6621094l5.1533203-7.3012695
		l-4.6733398-7.5942383l-9.222168,15.8618164l-6.1069336-10.1777344H48.644043L59.8198242,37.7304688z M51.6611328,104.34375
		L36.5410156,76.9023438l5.5454102-9.7861328l-4.3037109-7.8095703L58.4174805,59.78125l10.0996094,18.3300781l-8.8818359-0.9902344
		l-4.3959961,7.7578125l18.3427734,0.421875l-5.9667969,10.2607422l5.3901367,9.78125L51.6611328,104.34375z
		 M97.7041016,105.2890625l-11.2451172,0.2783203l-4.4833984,7.7070312L71.7685547,95.3349609l10.5244141-18.0898438
		l3.71875,8.1269531l8.9150391-0.2207031L85.8535156,69.203125l11.8671875-0.1601562l5.6162109-9.6542969l10.1220703,18.8183594
		L97.7041016,105.2890625z"/>
	<polygon fill="#FFFFFF" points="98.8808594,71.0273438 89.265625,71.1572266 98.3173828,87.0673828 84.7421875,87.4033203 
		82.0800781,81.5869141 74.0761719,95.3466797 81.9951172,109.2646484 85.2929688,103.5947266 96.5380859,103.3164062 
		111.1679688,78.1679688 103.2685547,63.4833984 	"/>
</g>
<g id="circle">
	<path fill="#FFFFFF" d="M75,150c-41.3550415,0-75-33.6449585-75-75S33.6449585,0,75,0s75,33.6449585,75,75S116.3550415,150,75,150z
		 M75,3.6585367C35.6618004,3.6585367,3.6585367,35.6618004,3.6585367,75S35.6618004,146.3414612,75,146.3414612
		S146.3414612,114.3382034,146.3414612,75S114.3382034,3.6585367,75,3.6585367z"/>
</g>
</svg>
