<?xml version="1.0" encoding="utf-8"?>
<!-- Generator: Adobe Illustrator 22.1.0, SVG Export Plug-In . SVG Version: 6.00 Build 0)  -->
<svg version="1.1" id="cleanup-icon" xmlns="http://www.w3.org/2000/svg" xmlns:xlink="http://www.w3.org/1999/xlink" x="0px"
	 y="0px" width="150px" height="150px" viewBox="0 0 150 150" enable-background="new 0 0 150 150" xml:space="preserve">
<g id="circle">
	<path fill="#FFFFFF" d="M75,150c-41.3550415,0-75-33.6449585-75-75S33.6449585,0,75,0s75,33.6449585,75,75S116.3550415,150,75,150z
		 M75,3.6585367C35.6618004,3.6585367,3.6585367,35.6618004,3.6585367,75S35.6618004,146.3414612,75,146.3414612
		S146.3414612,114.3382034,146.3414612,75S114.3382034,3.6585367,75,3.6585367z"/>
</g>
<g id="icon">
	<path fill="#FFFFFF" d="M65.9199219,66.1201172l9.222168-15.8618164l4.6733398,7.5942383l-5.1533203,7.3012695h20.9267578
		l10.375-17.8432617H97.046875l-5.8955078-9.5800781h-31.331543L48.644043,55.9423828h11.1689453L65.9199219,66.1201172z
		 M60.9389648,39.7304688h29.0952148l5.8955078,9.5800781h6.5576172l-8.0488281,13.8432617H78.5214844l3.6884766-5.2260742
		L75.0932617,46.362793L65.8925781,62.1875l-4.9467773-8.2451172h-8.7275391L60.9389648,39.7304688z"/>
	<path fill="#FFFFFF" d="M73.5820312,85.3007812l-18.3427734-0.421875l4.3959961-7.7578125l8.8818359,0.9902344L58.4174805,59.78125
		l-20.6347656-0.4746094l4.3037109,7.8095703l-5.5454102,9.7861328L51.6611328,104.34375l21.3442383,0.9990234l-5.3901367-9.78125
		L73.5820312,85.3007812z M69.5288086,103.1787109l-16.6557617-0.7802734L38.8320312,76.9160156l5.5454102-9.7861328
		l-3.1650391-5.7441406l16.0087891,0.3681641l7.6816406,13.9418945l-6.3574219-0.7089844l-6.6948242,11.8139648l18.3007812,0.421875
		l-4.8339844,8.3115234L69.5288086,103.1787109z"/>
	<path fill="#FFFFFF" d="M103.3369141,59.3886719l-5.6162109,9.6542969L85.8535156,69.203125l9.0732422,15.9482422
		l-8.9150391,0.2207031l-3.71875-8.1269531L71.7685547,95.3349609l10.2070312,17.9394531l4.4833984-7.7070312l11.2451172-0.2783203
		l15.7548828-27.0820312L103.3369141,59.3886719z M96.5380859,103.3164062l-11.2451172,0.2783203l-3.2978516,5.6699219
		l-7.9189453-13.9179688l8.0039062-13.7597656l2.6621094,5.8164062l13.5751953-0.3359375L89.265625,71.1572266l9.6152344-0.1298828
		l4.3876953-7.5439453l7.8994141,14.6845703L96.5380859,103.3164062z"/>
</g>
</svg>
