<?xml version="1.0" encoding="utf-8"?>
<!-- Generator: Adobe Illustrator 22.1.0, SVG Export Plug-In . SVG Version: 6.00 Build 0)  -->
<svg version="1.1" id="hazards-icon" xmlns="http://www.w3.org/2000/svg" xmlns:xlink="http://www.w3.org/1999/xlink" x="0px"
	 y="0px" width="150px" height="150px" viewBox="0 0 150 150" enable-background="new 0 0 150 150" xml:space="preserve">
<path id="circle" fill="#FFFFFF" d="M75,150.0159149c-41.3550415,0-75-33.6449661-75-75.0000076s33.6449585-75,75-75
	s75,33.6449585,75,75S116.3550415,150.0159149,75,150.0159149z M75,3.6744459
	c-39.3381996,0-71.3414612,32.0032616-71.3414612,71.3414612S35.6618004,146.3573761,75,146.3573761
	s71.3414612-32.0032654,71.3414612-71.3414688S114.3382034,3.6744459,75,3.6744459z"/>
<g id="icon">
	<polygon fill="#FFFFFF" points="85.409996,63.8540993 83.4718933,61.9524536 74.9820557,70.6021957 66.3319016,62.1125259 
		64.4302521,64.0499649 73.0801239,72.5399246 64.5903244,81.1896286 66.5277634,83.0919418 75.0178909,74.4419022 
		83.6680908,82.9321976 85.5704041,80.9940948 76.9199142,72.504097 	"/>
	<path fill="#FFFFFF" d="M113.3745956,52.6536789l-0.0570068-0.8000298L75,34.1538963L36.6823997,51.8536491l-0.057003,0.8000298
		c-0.033802,0.4759102-0.7784882,11.8132019,3.4732056,25.3086548c3.9414902,12.5101624,13.108696,29.2027512,34.3993073,37.6816177
		L75,115.8434601l0.5020828-0.1995087c21.2906113-8.4788666,30.4581451-25.1714554,34.3993073-37.6816177
		C114.1527481,64.4668808,113.4084015,53.1295891,113.3745956,52.6536789z M107.3117294,77.1464005
		C101.8924713,94.3480377,91.0228043,106.3809662,75,112.919075c-15.9939766-6.5261765-26.8540344-18.5292816-32.2839012-35.6838608
		c-3.4940834-11.0386887-3.5000496-20.8156929-3.4165306-23.5998917L75,37.1445618l35.7007599,16.4910927
		C110.7862625,56.4082527,110.7855988,66.1212921,107.3117294,77.1464005z"/>
</g>
</svg>
