<?xml version="1.0" encoding="utf-8"?>
<!-- Generator: Adobe Illustrator 22.1.0, SVG Export Plug-In . SVG Version: 6.00 Build 0)  -->
<svg version="1.1" id="hazards-icon-hover" xmlns="http://www.w3.org/2000/svg" xmlns:xlink="http://www.w3.org/1999/xlink" x="0px"
	 y="0px" width="150px" height="150px" viewBox="0 0 150 150" enable-background="new 0 0 150 150" xml:space="preserve">
<path id="circle" fill="#FFFFFF" d="M75,150c-41.3550415,0-75-33.6449661-75-75.0000076s33.6449585-75,75-75s75,33.6449585,75,75
	S116.3550415,150,75,150z M75,3.658531c-39.3381996,0-71.3414612,32.0032616-71.3414612,71.3414612
	S35.6618004,146.3414612,75,146.3414612s71.3414612-32.0032654,71.3414612-71.3414688S114.3382034,3.658531,75,3.658531z"/>
<g>
	<path fill="#FFFFFF" d="M75,37.145874L39.2996216,53.6366577c-0.0835571,2.7841797-0.0775757,12.5611572,3.4165039,23.5998535
		C48.1459961,94.3911133,59.0060425,106.3942261,75,112.9204102c16.0228271-6.538147,26.8925171-18.5710449,32.3117676-35.7727051
		c3.473877-11.0250854,3.4745483-20.7381592,3.3890381-23.5107422L75,37.145874z M83.6680908,82.9335327l-8.6501465-8.4902954
		l-8.4901733,8.6500244l-1.937439-1.9023438l8.4898071-8.6496582l-8.6498413-8.4899902l1.9016113-1.937439l8.6501465,8.4896851
		l8.4898682-8.6497192l1.9381104,1.9016113l-8.4901123,8.6500244l8.6505127,8.4899902L83.6680908,82.9335327z"/>
	<path fill="#FFFFFF" d="M75,2.8372192C35.1455688,2.8372192,2.8372192,35.1455688,2.8372192,75
		c0,39.8543701,32.3083496,72.1627808,72.1627808,72.1627808S147.1627808,114.8543701,147.1627808,75
		C147.1627808,35.1455688,114.8544312,2.8372192,75,2.8372192z M109.9014282,77.963623
		c-3.9411621,12.5101929-13.1087036,29.2027588-34.399292,37.6816406L75,115.8447876l-0.5020752-0.1995239
		c-21.2905884-8.4788818-30.4578247-25.1714478-34.399292-37.6816406
		c-4.251709-13.4954224-3.507019-24.8327026-3.4732056-25.3086548l0.0570068-0.7999878L75,34.1552124l38.317627,17.6997681
		l0.0570068,0.7999878C113.4084473,53.1309204,114.152771,64.4682007,109.9014282,77.963623z"/>
</g>
</svg>
