<?xml version="1.0" encoding="utf-8"?>
<!-- Generator: Adobe Illustrator 22.1.0, SVG Export Plug-In . SVG Version: 6.00 Build 0)  -->
<svg version="1.1" id="misc-icon" xmlns="http://www.w3.org/2000/svg" xmlns:xlink="http://www.w3.org/1999/xlink" x="0px" y="0px"
	 width="150px" height="150px" viewBox="0 0 150 150" enable-background="new 0 0 150 150" xml:space="preserve">
<g>
	<path id="circle" fill="#FFFFFF" d="M75,150.000061c-41.3550415,0-75-33.6449585-75-75s33.6449585-75,75-75s75,33.6449623,75,75
		S116.3550415,150.000061,75,150.000061z M75,3.6585991c-39.3381996,0-71.3414612,32.0032616-71.3414612,71.3414612
		S35.6618004,146.3415222,75,146.3415222s71.3414612-32.0032578,71.3414612-71.3414612S114.3382034,3.6585991,75,3.6585991z"/>
	<g>
		<path fill="#FFFFFF" d="M33.2850685,44.7039833v60.5922813h83.4296875V44.7039833H33.2850685z M113.7147522,47.7039833v8.2539062
			H36.2850685v-8.2539062H113.7147522z M36.2850685,102.2962646V58.9578896h77.4296875v43.3383751H36.2850685z"/>
		<rect x="46.0389748" y="69.6971436" fill="#FFFFFF" width="31.7744141" height="2"/>
		<rect x="46.0389748" y="75.6551514" fill="#FFFFFF" width="14.5634766" height="1.9995117"/>
		<rect x="65.8973694" y="75.6551514" fill="#FFFFFF" width="23.8320312" height="1.9995117"/>
		<rect x="46.0389748" y="81.2816162" fill="#FFFFFF" width="35.0839844" height="2"/>
		<rect x="46.0389748" y="86.9085693" fill="#FFFFFF" width="17.5419922" height="2"/>
		<path fill="#FFFFFF" d="M40.3290138,53.9857216c1.1425781,0,2.0722656-0.9291992,2.0722656-2.0717773
			s-0.9296875-2.0722656-2.0722656-2.0722656s-2.0722656,0.9296875-2.0722656,2.0722656
			S39.1864357,53.9857216,40.3290138,53.9857216z M40.3290138,50.8416786c0.5908203,0,1.0722656,0.480957,1.0722656,1.0722656
			c0,0.5908203-0.4814453,1.0717773-1.0722656,1.0717773s-1.0722656-0.480957-1.0722656-1.0717773
			C39.2567482,51.3226357,39.7381935,50.8416786,40.3290138,50.8416786z"/>
		<path fill="#FFFFFF" d="M44.9628029,53.9857216c1.1425781,0,2.0722656-0.9291992,2.0722656-2.0717773
			s-0.9296875-2.0722656-2.0722656-2.0722656s-2.0722656,0.9296875-2.0722656,2.0722656
			S43.8202248,53.9857216,44.9628029,53.9857216z M44.9628029,50.8416786c0.5908203,0,1.0722656,0.480957,1.0722656,1.0722656
			c0,0.5908203-0.4814453,1.0717773-1.0722656,1.0717773s-1.0722656-0.480957-1.0722656-1.0717773
			C43.8905373,51.3226357,44.3719826,50.8416786,44.9628029,50.8416786z"/>
		<path fill="#FFFFFF" d="M49.5965919,53.9857216c1.1425781,0,2.0722656-0.9291992,2.0722656-2.0717773
			s-0.9296875-2.0722656-2.0722656-2.0722656s-2.0722656,0.9296875-2.0722656,2.0722656
			S48.4540138,53.9857216,49.5965919,53.9857216z M49.5965919,50.8416786c0.5908203,0,1.0722656,0.480957,1.0722656,1.0722656
			c0,0.5908203-0.4814453,1.0717773-1.0722656,1.0717773s-1.0722656-0.480957-1.0722656-1.0717773
			C48.5243263,51.3226357,49.0057716,50.8416786,49.5965919,50.8416786z"/>
		<path fill="#FFFFFF" d="M96.6473694,83.2952881l2.0556641,12.1376953l3.6466064-2.4946289l1.3602295,1.9887695
			l1.6503906-1.1289062l-1.3602905-1.9888916l3.2138062-2.1986084L96.6473694,83.2952881z M99.3426819,87.2366943
			l4.1621094,2.4873047l-3.3525391,2.2929688L99.3426819,87.2366943z"/>
	</g>
</g>
</svg>
