<?xml version="1.0" encoding="utf-8"?>
<!-- Generator: Adobe Illustrator 22.1.0, SVG Export Plug-In . SVG Version: 6.00 Build 0)  -->
<svg version="1.1" id="misc-icon-hover" xmlns="http://www.w3.org/2000/svg" xmlns:xlink="http://www.w3.org/1999/xlink" x="0px"
	 y="0px" width="150px" height="150px" viewBox="0 0 150 150" enable-background="new 0 0 150 150" xml:space="preserve">
<path id="circle" fill="#FFFFFF" d="M75,150c-41.3550415,0-75-33.6449585-75-75S33.6449585,0,75,0s75,33.6449623,75,75
	S116.3550415,150,75,150z M75,3.6585381C35.6618004,3.6585381,3.6585388,35.6618004,3.6585388,75
	S35.6618004,146.3414612,75,146.3414612S146.3414612,114.3382034,146.3414612,75S114.3382034,3.6585381,75,3.6585381z"/>
<g>
	<path fill="#FFFFFF" d="M49.5966492,50.8415527c-0.5908203,0-1.0722656,0.480957-1.0722656,1.0722656
		c0,0.5908203,0.4814453,1.0717773,1.0722656,1.0717773s1.0722656-0.480957,1.0722656-1.0717773
		C50.6689148,51.3225098,50.1874695,50.8415527,49.5966492,50.8415527z"/>
	<polygon fill="#FFFFFF" points="100.1523132,92.0168457 103.5048523,89.723877 99.3427429,87.2365723 	"/>
	<path fill="#FFFFFF" d="M113.7148132,47.7038574H36.2851257v8.2539062h77.4296875V47.7038574z M40.329071,53.9855957
		c-1.1425781,0-2.0722656-0.9291992-2.0722656-2.0717773s0.9296875-2.0722656,2.0722656-2.0722656
		s2.0722656,0.9296875,2.0722656,2.0722656S41.4716492,53.9855957,40.329071,53.9855957z M44.9628601,53.9855957
		c-1.1425781,0-2.0722656-0.9291992-2.0722656-2.0717773s0.9296875-2.0722656,2.0722656-2.0722656
		s2.0722656,0.9296875,2.0722656,2.0722656S46.1054382,53.9855957,44.9628601,53.9855957z M49.5966492,53.9855957
		c-1.1425781,0-2.0722656-0.9291992-2.0722656-2.0717773s0.9296875-2.0722656,2.0722656-2.0722656
		s2.0722656,0.9296875,2.0722656,2.0722656S50.7392273,53.9855957,49.5966492,53.9855957z"/>
	<path fill="#FFFFFF" d="M44.9628601,50.8415527c-0.5908203,0-1.0722656,0.480957-1.0722656,1.0722656
		c0,0.5908203,0.4814453,1.0717773,1.0722656,1.0717773s1.0722656-0.480957,1.0722656-1.0717773
		C46.0351257,51.3225098,45.5536804,50.8415527,44.9628601,50.8415527z"/>
	<path fill="#FFFFFF" d="M74.9999695,2.8292847C35.1412048,2.8292847,2.8293152,35.1412354,2.8293152,75
		s32.3118896,72.1707153,72.1706543,72.1707153S147.1706848,114.8587646,147.1706848,75S114.8587341,2.8292847,74.9999695,2.8292847
		z M116.7148132,105.2961426H33.2851257V44.7038574h83.4296875V105.2961426z"/>
	<path fill="#FFFFFF" d="M40.329071,50.8415527c-0.5908203,0-1.0722656,0.480957-1.0722656,1.0722656
		c0,0.5908203,0.4814453,1.0717773,1.0722656,1.0717773s1.0722656-0.480957,1.0722656-1.0717773
		C41.4013367,51.3225098,40.9198914,50.8415527,40.329071,50.8415527z"/>
	<path fill="#FFFFFF" d="M113.7148132,58.9577637H36.2851257v43.3383789h77.4296875V58.9577637z M46.039032,69.6970215H77.813446v2
		H46.039032V69.6970215z M46.039032,75.6550293h14.5634766v1.9995117H46.039032V75.6550293z M63.5810242,88.9084473H46.039032v-2
		h17.5419922V88.9084473z M81.1230164,83.2814941H46.039032v-2h35.0839844V83.2814941z M89.7294617,77.654541H65.8974304v-1.9995117
		h23.8320312V77.654541z M105.360321,93.7980957l-1.6503906,1.1289062l-1.3602295-1.9887695l-3.6466064,2.4946289
		L96.6474304,83.295166l10.5664062,6.3154297l-3.2138062,2.1986084L105.360321,93.7980957z"/>
</g>
</svg>
