<?xml version="1.0" encoding="utf-8"?>
<!-- Generator: Adobe Illustrator 22.1.0, SVG Export Plug-In . SVG Version: 6.00 Build 0)  -->
<svg version="1.1" id="parks-icon" xmlns="http://www.w3.org/2000/svg" xmlns:xlink="http://www.w3.org/1999/xlink" x="0px" y="0px"
	 width="150px" height="150px" viewBox="0 0 150 150" enable-background="new 0 0 150 150" xml:space="preserve">
<path id="circle" fill="#FFFFFF" d="M75,150c-41.3550415,0-75-33.6449585-75-75S33.6449585,0,75,0s75,33.6449585,75,75
	S116.3550415,150,75,150z M75,3.6585367C35.6618004,3.6585367,3.6585367,35.6618004,3.6585367,75
	S35.6618004,146.3414612,75,146.3414612S146.3414612,114.3382034,146.3414612,75S114.3382034,3.6585367,75,3.6585367z"/>
<g id="icon">
	<path fill="#FFFFFF" d="M70.7832031,86.3818359h-3v2.3183594H40.9189453v-2.3183594h-3V99.984375h-4.581543v8.2597656h4.581543
		v4.6083984h3v-4.6083984h26.8642578v4.6083984h3v-4.6083984h4.2421875V99.984375h-4.2421875V86.3818359z M67.7832031,91.7001953
		v2.6845703H40.9189453v-2.6845703H67.7832031z M40.9189453,97.3847656h26.8642578v2.5996094H40.9189453V97.3847656z
		 M72.0253906,105.2441406H36.3374023v-2.2597656h35.6879883V105.2441406z"/>
	<polygon fill="#FFFFFF" points="113.8310547,77.7529297 116.4931641,74.7666016 101.8261719,61.6950684 101.8261719,56.4871216 
		113.8310547,67.1865234 116.4931641,64.2001953 99.8261719,49.3461914 83.1582031,64.2001953 85.8203125,67.1865234 
		97.8261719,56.4869995 97.8261719,61.6949463 83.1582031,74.7666016 85.8203125,77.7529297 97.8261719,67.0534058 
		97.8261719,72.2613525 83.1582031,85.3330078 85.8203125,88.3193359 97.8261719,77.619812 97.8261719,112.8525391 
		101.8261719,112.8525391 101.8261719,77.6199341 113.8310547,88.3193359 116.4931641,85.3330078 101.8261719,72.2614746 
		101.8261719,67.0535278 	"/>
	<path fill="#FFFFFF" d="M60.1469727,35.4775391c-6.3935547,1.0600586-11.9916992,4.5463867-15.7626953,9.8168945
		c-3.7714844,5.2705078-5.2646484,11.6943359-4.2045898,18.0878906c0.8701172,5.2475586,3.3632812,9.9536133,7.2099609,13.6088867
		l2.7558594-2.8994141c-3.2114258-3.0517578-5.2929688-6.980957-6.0195312-11.3637695
		c-0.8852539-5.3393555,0.3613281-10.7041016,3.5112305-15.105957c3.1494141-4.4013672,7.824707-7.3129883,13.1640625-8.1982422
		c7.5361328-1.2509766,15.0444336,1.7875977,19.5991211,7.925293l3.2128906-2.3837891
		C78.1591797,37.6171875,69.1655273,33.9814453,60.1469727,35.4775391z"/>
	<path fill="#FFFFFF" d="M57.3637695,63.6977539l1.0771484,1.6855469c1.6464844-1.0522461,3.6025391-1.4003906,5.5117188-0.9799805
		c1.9082031,0.4199219,3.5385742,1.5576172,4.590332,3.2041016l0.0610352-0.0390015
		c0.1595459,0.3303223,0.3337402,0.6564331,0.5361328,0.9730835l1.6855469-1.0771484
		c-1.0522461-1.6459961-1.4003906-3.6035156-0.9804688-5.5117188s1.5576172-3.5385742,3.2041016-4.5908203l-1.0771484-1.6855469
		c-2.8831177,1.8431396-4.3995972,5.0199585-4.2793579,8.2148438c-0.9851685-0.6836548-2.1036987-1.1757202-3.3099976-1.4414062
		C61.9521484,61.9150391,59.4599609,62.3574219,57.3637695,63.6977539z"/>
</g>
</svg>
