<?xml version="1.0" encoding="utf-8"?>
<!-- Generator: Adobe Illustrator 22.1.0, SVG Export Plug-In . SVG Version: 6.00 Build 0)  -->
<svg version="1.1" id="parks-icon-hover" xmlns="http://www.w3.org/2000/svg" xmlns:xlink="http://www.w3.org/1999/xlink" x="0px"
	 y="0px" width="150px" height="150px" viewBox="0 0 150 150" enable-background="new 0 0 150 150" xml:space="preserve">
<path id="circle" fill="#FFFFFF" d="M75.0286713,150c-41.3550415,0-75-33.6449585-75-75s33.6449585-75,75-75s75,33.6449585,75,75
	S116.3837128,150,75.0286713,150z M75.0286713,3.6585367C35.6904716,3.6585367,3.6872079,35.6618004,3.6872079,75
	s32.0032654,71.3414612,71.3414612,71.3414612S146.3701324,114.3382034,146.3701324,75S114.3668747,3.6585367,75.0286713,3.6585367z
	"/>
<g>
	<rect x="36.4508057" y="103.9851685" fill="#FFFFFF" width="35.6879883" height="2.2597656"/>
	<rect x="41.0323486" y="98.3855591" fill="#FFFFFF" width="26.8642578" height="2.5996094"/>
	<rect x="41.0323486" y="92.7009888" fill="#FFFFFF" width="26.8642578" height="2.6845703"/>
	<path fill="#FFFFFF" d="M75.0286865,1.8292847C34.6176147,1.8292847,1.8579712,34.5889282,1.8579712,75
		s32.7596436,73.1707153,73.1707153,73.1707153S148.1994019,115.4110718,148.1994019,75S115.4397583,1.8292847,75.0286865,1.8292847
		z M75.1387939,109.2449341h-4.2421875v4.6083984h-3v-4.6083984H41.0323486v4.6083984h-3v-4.6083984h-4.581543v-8.2597656h4.581543
		V87.3826294h3v2.3183594h26.8642578v-2.3183594h3v13.6025391h4.2421875V109.2449341z M70.9390869,68.4651489L69.25354,69.5422974
		c-0.2023926-0.3166504-0.3765869-0.6427612-0.5361328-0.9730835l-0.0610352,0.0390015
		c-1.0517578-1.6464844-2.6821289-2.7841797-4.590332-3.2041016c-1.9091797-0.4204102-3.8652344-0.0722656-5.5117188,0.9799805
		l-1.0771484-1.6855469c2.0961914-1.340332,4.5883789-1.7827148,7.019043-1.2480469
		c1.2062988,0.265686,2.3248291,0.7577515,3.3099976,1.4414062c-0.1202393-3.1948853,1.3962402-6.3717041,4.2793579-8.2148438
		l1.0771484,1.6855469c-1.6464844,1.0522461-2.7841797,2.6826172-3.2041016,4.5908203S69.8868408,66.8191528,70.9390869,68.4651489z
		 M60.9146729,40.4246216c-5.3393555,0.8852539-10.0146484,3.796875-13.1640625,8.1982422
		c-3.1499023,4.4018555-4.3964844,9.7666016-3.5112305,15.105957c0.7265625,4.3828125,2.8081055,8.3120117,6.0195312,11.3637695
		l-2.7558594,2.8994141c-3.8466797-3.6552734-6.3398438-8.3613281-7.2099609-13.6088867
		c-1.0600586-6.3935547,0.4331055-12.8173828,4.2045898-18.0878906c3.7709961-5.2705078,9.3691406-8.7568359,15.7626953-9.8168945
		c9.0185547-1.4960938,18.012207,2.1396484,23.4663086,9.487793l-3.2128906,2.3837891
		C75.9591064,42.2122192,68.4508057,39.173645,60.9146729,40.4246216z M116.6065674,75.767395l-2.6621094,2.9863281
		l-12.0048828-10.6994019v5.2079468l14.6669922,13.0715332l-2.6621094,2.9863281l-12.0048828-10.6994019v35.232605h-4V78.6206055
		L85.9337158,89.3201294l-2.6621094-2.9863281L97.9395752,73.262146v-5.2079468L85.9337158,78.7537231l-2.6621094-2.9863281
		l14.6679688-13.0716553V57.487793L85.9337158,68.1873169l-2.6621094-2.9863281l16.6679688-14.8540039l16.6669922,14.8540039
		l-2.6621094,2.9863281L101.9395752,57.487915v5.2079468L116.6065674,75.767395z"/>
</g>
</svg>
