<?xml version="1.0" encoding="utf-8"?>
<!-- Generator: Adobe Illustrator 22.1.0, SVG Export Plug-In . SVG Version: 6.00 Build 0)  -->
<svg version="1.1" id="search-icon" xmlns="http://www.w3.org/2000/svg" xmlns:xlink="http://www.w3.org/1999/xlink" x="0px"
	 y="0px" width="26.9238281px" height="27.2495117px" viewBox="0 0 26.9238281 27.2495117"
	 enable-background="new 0 0 26.9238281 27.2495117" xml:space="preserve">
<path id="icon" fill="#FFFFFF" d="M26.9238281,25.128418l-6.1652832-6.1652832c1.6081543-2,2.576416-4.5352783,2.576416-7.295166
	C23.3349609,5.234375,18.1005859,0,11.6674805,0C5.2338867,0,0,5.234375,0,11.6679688
	c0,6.4331055,5.2338867,11.6674805,11.6674805,11.6674805c2.5933838,0,4.9837646-0.861084,6.9231567-2.2980347l6.2120972,6.2120972
	L26.9238281,25.128418z M3,11.6679688C3,6.8886719,6.8881836,3,11.6674805,3c4.7788086,0,8.6674805,3.8886719,8.6674805,8.6679688
	c0,4.7788086-3.8886719,8.6674805-8.6674805,8.6674805C6.8881836,20.3354492,3,16.4467773,3,11.6679688z"/>
</svg>
