<?xml version="1.0" encoding="utf-8"?>
<!-- Generator: Adobe Illustrator 22.1.0, SVG Export Plug-In . SVG Version: 6.00 Build 0)  -->
<svg version="1.1" id="streets-icon" xmlns="http://www.w3.org/2000/svg" xmlns:xlink="http://www.w3.org/1999/xlink" x="0px"
	 y="0px" width="150px" height="150px" viewBox="0 0 150 150" enable-background="new 0 0 150 150" xml:space="preserve">
<path id="circle" fill="#FFFFFF" d="M75,150.0559082c-41.3550415,0-75-33.6449585-75-75s33.6449585-75,75-75s75,33.6449585,75,75
	S116.3550415,150.0559082,75,150.0559082z M75,3.7144415c-39.3381996,0-71.3414612,32.0032616-71.3414612,71.3414688
	S35.6618004,146.3973694,75,146.3973694s71.3414612-32.0032578,71.3414612-71.3414612S114.3382034,3.7144415,75,3.7144415z"/>
<path fill="#FFFFFF" d="M74.9999695,1.8851929c-40.4110718,0-73.1707153,32.7596436-73.1707153,73.1707153
	s32.7596436,73.1707153,73.1707153,73.1707153c40.4111328,0,73.1707764-32.7596436,73.1707764-73.1707153
	S115.4111023,1.8851929,74.9999695,1.8851929z M34.1737366,86.3375854l13.5268555-5.2162476v-19.206604
	c0-2.1069336,0.8706055-3.3579102,1.6010742-4.0361328c1.3778687-1.2797852,3.180481-1.4795532,4.0502319-1.4974365
	c0.2992554-0.2108154,0.6620483-0.3370361,1.0552368-0.3370361h3.6953125c1.0141602,0,1.8393555,0.8251953,1.8393555,1.8398438
	c0,1.0141602-0.8251953,1.8393555-1.8393555,1.8393555H54.407135c-0.3963013,0-0.7614136-0.1287231-1.0620117-0.3425903
	c-0.5330811,0.020874-1.4432983,0.1695557-2.0112305,0.704895c-0.4262695,0.4013672-0.6333008,1-0.6333008,1.8291016v18.0497437
	l18.980957-7.319397V53.4220581c0-2.1069336,0.8706055-3.3579102,1.6010742-4.0361328
	c1.3779297-1.2791748,3.1801758-1.4788208,4.0498047-1.4970703c0.2993774-0.2109985,0.6622925-0.3374023,1.0556641-0.3374023
	h3.6953125c1.0146484,0,1.8398438,0.8251953,1.8398438,1.8398438s-0.8251953,1.8398438-1.8398438,1.8398438H76.388092
	c-0.3963623,0-0.7614746-0.1287231-1.0621338-0.3427124c-0.5333252,0.0211792-1.4431152,0.1694946-2.0111084,0.7045288
	c-0.4262695,0.4013672-0.6333008,1-0.6333008,1.8291016v18.0661621l18.980957-7.319458V44.4298706
	c0-2.1069336,0.8710938-3.3579102,1.6015625-4.0361328c1.3776855-1.2793579,3.1799316-1.4790039,4.0488892-1.4971313
	c0.2993164-0.2109985,0.6622314-0.3373413,1.055603-0.3373413h3.6953125c1.0146484,0,1.8398438,0.8251953,1.8398438,1.8398438
	s-0.8251953,1.8398438-1.8398438,1.8398438h-3.6953125c-0.3955078,0-0.7600098-0.1281128-1.0603027-0.3412476
	c-0.5318604,0.022583-1.4442139,0.1679077-2.0119629,0.703064c-0.4267578,0.4013672-0.6337891,0.9995117-0.6337891,1.8291016
	v18.5820312l15.9443359-6.1484375l1.0800781,2.7988281l-76.434082,29.4741211L34.1737366,86.3375854z M111.721283,70.335144
	l-5.0082397,2.2612305l-1.234375-2.7338867l5.0082397-2.2612305L111.721283,70.335144z M103.8962708,73.8696289
	l-5.0077515,2.2626343l-1.2351685-2.7337646l5.0076904-2.2626343L103.8962708,73.8696289z M96.072052,77.4047852
	l-5.0077515,2.2626343l-1.2351685-2.7337646l5.0076904-2.2626343L96.072052,77.4047852z M88.2467346,80.940979l-5.0078125,2.2617188
	l-1.2348633-2.7341309l5.0078125-2.2617188L88.2467346,80.940979z M80.42276,84.4760132l-5.0077515,2.2628784l-1.2354736-2.7340698
	l5.0077515-2.2628784L80.42276,84.4760132z M72.598114,88.0113525l-5.0078125,2.2626953l-1.2354736-2.734314l5.0078125-2.2626953
	L72.598114,88.0113525z M64.773407,91.5465088l-5.0078125,2.2626953l-1.2354736-2.734314l5.0078125-2.2626953L64.773407,91.5465088z
	 M44.1160583,100.8794556l-1.2353516-2.734375l5.0078735-2.2625122l1.2353516,2.734375L44.1160583,100.8794556z
	 M55.7132874,92.3474121l1.2353516,2.734375l-5.0078735,2.2625122l-1.2353516-2.734375L55.7132874,92.3474121z
	 M52.3814392,111.5525513l-1.3666382-2.6702271l63.4448242-32.4716797l1.3666382,2.6702271L52.3814392,111.5525513z"/>
</svg>
