<?xml version="1.0" encoding="utf-8"?>
<!-- Generator: Adobe Illustrator 22.1.0, SVG Export Plug-In . SVG Version: 6.00 Build 0)  -->
<svg version="1.1" id="streets-icon" xmlns="http://www.w3.org/2000/svg" xmlns:xlink="http://www.w3.org/1999/xlink" x="0px"
	 y="0px" width="150px" height="150px" viewBox="0 0 150 150" enable-background="new 0 0 150 150" xml:space="preserve">
<path id="circle" fill="#FFFFFF" d="M75,150c-41.3550415,0-75-33.6449585-75-75S33.6449585,0,75,0s75,33.6449585,75,75
	S116.3550415,150,75,150z M75,3.6585367C35.6618004,3.6585367,3.6585367,35.6618004,3.6585367,75
	S35.6618004,146.3414612,75,146.3414612S146.3414612,114.3382034,146.3414612,75S114.3382034,3.6585367,75,3.6585367z"/>
<g id="icon">
	<path fill="#FFFFFF" d="M110.2919922,57.1459961l-15.9443359,6.1484375V44.7124023
		c0-0.8295898,0.2070312-1.4277344,0.6337891-1.8291016c0.567749-0.5351562,1.4801025-0.680481,2.0119629-0.703064
		c0.300293,0.2131348,0.6647949,0.3412476,1.0603027,0.3412476h3.6953125c1.0146484,0,1.8398438-0.8251953,1.8398438-1.8398438
		s-0.8251953-1.8398438-1.8398438-1.8398438h-3.6953125c-0.3933716,0-0.7562866,0.1263428-1.055603,0.3373413
		c-0.8689575,0.0181274-2.6712036,0.2177734-4.0488892,1.4971313c-0.7304688,0.6782227-1.6015625,1.9291992-1.6015625,4.0361328
		v19.7388916l-18.980957,7.319458V53.7045898c0-0.8291016,0.2070312-1.4277344,0.6333008-1.8291016
		c0.5679932-0.5350342,1.4777832-0.6833496,2.0111084-0.7045288c0.3006592,0.2139893,0.6657715,0.3427124,1.0621338,0.3427124
		h3.6953125c1.0146484,0,1.8398438-0.8251953,1.8398438-1.8398438s-0.8251953-1.8398438-1.8398438-1.8398438h-3.6953125
		c-0.3933716,0-0.7562866,0.1264038-1.0556641,0.3374023c-0.8696289,0.0182495-2.671875,0.2178955-4.0498047,1.4970703
		c-0.7304688,0.6782227-1.6010742,1.9291992-1.6010742,4.0361328v19.2230225l-18.980957,7.319397V62.1972656
		c0-0.8291016,0.2070312-1.4277344,0.6333008-1.8291016c0.5679321-0.5353394,1.4781494-0.684021,2.0112305-0.704895
		c0.3005981,0.2138672,0.6657104,0.3425903,1.0620117,0.3425903h3.6953125c1.0141602,0,1.8393555-0.8251953,1.8393555-1.8393555
		c0-1.0146484-0.8251953-1.8398438-1.8393555-1.8398438h-3.6953125c-0.3931885,0-0.7559814,0.1262207-1.0552368,0.3370361
		c-0.869751,0.0178833-2.6723633,0.2176514-4.0502319,1.4974365c-0.7304688,0.6782227-1.6010742,1.9291992-1.6010742,4.0361328
		v19.206604l-13.5268555,5.2162476l1.0791016,2.7988281l76.434082-29.4741211L110.2919922,57.1459961z"/>
	
		<rect x="47.4698601" y="92.7643509" transform="matrix(0.8901825 -0.4556041 0.4556041 0.8901825 -33.8206749 48.2151566)" fill="#FFFFFF" width="71.2717056" height="2.999614"/>
	
		<rect x="42.9398651" y="97.1633301" transform="matrix(0.9113115 -0.4117175 0.4117175 0.9113115 -36.5695686 27.560667)" fill="#FFFFFF" width="5.4952683" height="3.0004833"/>
	
		<rect x="50.7645721" y="93.6281738" transform="matrix(0.9113115 -0.4117175 0.4117175 0.9113115 -34.4201202 30.468708)" fill="#FFFFFF" width="5.4952683" height="3.0004833"/>
	
		<rect x="58.5892792" y="90.0930176" transform="matrix(0.9112953 -0.4117534 0.4117534 0.9112953 -32.2729645 33.3804321)" fill="#FFFFFF" width="5.4952683" height="3.0004833"/>
	
		<rect x="66.4139862" y="86.5578613" transform="matrix(0.9112953 -0.4117534 0.4117534 0.9112953 -30.1232624 36.2886963)" fill="#FFFFFF" width="5.4952683" height="3.0004833"/>
	
		<rect x="74.2386932" y="83.0228043" transform="matrix(0.9112803 -0.4117867 0.4117867 0.9112803 -27.9752197 39.2008018)" fill="#FFFFFF" width="5.4952683" height="3.0002823"/>
	
		<rect x="82.0631104" y="79.4872665" transform="matrix(0.911362 -0.4116058 0.4116058 0.911362 -25.8174038 42.0870628)" fill="#FFFFFF" width="5.4948664" height="3.0000813"/>
	
		<rect x="89.8881607" y="75.9518509" transform="matrix(0.9112953 -0.4117534 0.4117534 0.9112953 -23.6738091 45.0134125)" fill="#FFFFFF" width="5.4951682" height="2.9998589"/>
	
		<rect x="97.7123795" y="72.4166946" transform="matrix(0.9112953 -0.4117534 0.4117534 0.9112953 -21.5241508 47.9214783)" fill="#FFFFFF" width="5.4951682" height="2.9998589"/>
	
		<rect x="105.5376205" y="68.8815308" transform="matrix(0.911406 -0.4115082 0.4115082 0.911406 -19.3690929 50.7955933)" fill="#FFFFFF" width="5.4950676" height="2.9996364"/>
</g>
</svg>
