<?xml version="1.0" encoding="utf-8"?>
<!-- Generator: Adobe Illustrator 22.1.0, SVG Export Plug-In . SVG Version: 6.00 Build 0)  -->
<svg version="1.1" id="water-icon" xmlns="http://www.w3.org/2000/svg" xmlns:xlink="http://www.w3.org/1999/xlink" x="0px" y="0px"
	 width="150px" height="150px" viewBox="0 0 150 150" enable-background="new 0 0 150 150" xml:space="preserve">
<path id="circle" fill="#FFFFFF" d="M75,150c-41.3550415,0-75-33.6449585-75-75S33.6449585,0,75,0s75,33.6449585,75,75
	S116.3550415,150,75,150z M75,3.6585367C35.6618004,3.6585367,3.6585367,35.6618004,3.6585367,75
	S35.6618004,146.3414612,75,146.3414612S146.3414612,114.3382034,146.3414612,75S114.3382034,3.6585367,75,3.6585367z"/>
<g id="icon">
	<path fill="#FFFFFF" d="M56.8178711,89.1025391l-1.2954102,2.2167969
		c-1.1220703,1.921875-6.7216797,11.7001953-6.7216797,15.5117188c0,4.4208984,3.5966797,8.0175781,8.0170898,8.0175781
		s8.0170898-3.5966797,8.0170898-8.0175781c0-3.8115234-5.5996094-13.5898438-6.7216797-15.5117188L56.8178711,89.1025391z
		 M56.8178711,111.8486328c-2.7666016,0-5.0170898-2.2509766-5.0170898-5.0175781
		c0-1.9423828,2.7041016-7.4960938,5.0170898-11.7080078c2.3129883,4.2109375,5.0170898,9.7646484,5.0170898,11.7080078
		C61.8349609,109.5976562,59.5844727,111.8486328,56.8178711,111.8486328z"/>
	<path fill="#FFFFFF" d="M88.8398438,46.0712891v9.8793945h-6.1289062v-9.8793945h-7.4151001l0.0732422-7.9199219h12.2451782v-3
		h-27.559082v3h12.3136597l-0.0733032,7.9199219h-7.1153564l-0.1925049,9.8793945h-17.74646v30.559082h18.0791016V70.9101562
		h23.5195312v11.4394531h13.9189453V46.0712891H88.8398438z M68.1225586,49.0712891h11.5883789v6.8793945H67.987915
		L68.1225586,49.0712891z M99.7587891,79.3496094h-7.9189453V67.9101562H62.3203125v15.5996094H50.2412109v-24.559082h41.5986328
		v-9.8793945h7.9189453V79.3496094z"/>
</g>
</svg>
