<?xml version="1.0" encoding="utf-8"?>
<!-- Generator: Adobe Illustrator 22.1.0, SVG Export Plug-In . SVG Version: 6.00 Build 0)  -->
<svg version="1.1" id="water-icon-hover" xmlns="http://www.w3.org/2000/svg" xmlns:xlink="http://www.w3.org/1999/xlink" x="0px"
	 y="0px" width="150px" height="150px" viewBox="0 0 150 150" enable-background="new 0 0 150 150" xml:space="preserve">
<path id="circle" fill="#FFFFFF" d="M75,150c-41.3550415,0-75-33.6449585-75-75S33.6449585,0,75,0s75,33.6449585,75,75
	S116.3550415,150,75,150z M75,3.6585367C35.6618004,3.6585367,3.6585367,35.6618004,3.6585367,75
	S35.6618004,146.3414612,75,146.3414612S146.3414612,114.3382034,146.3414612,75S114.3382034,3.6585367,75,3.6585367z"/>
<g>
	<polygon fill="#FFFFFF" points="50.2412109,83.5097656 62.3203125,83.5097656 62.3203125,67.9101562 91.8398438,67.9101562 
		91.8398438,79.3496094 99.7587891,79.3496094 99.7587891,49.0712891 91.8398438,49.0712891 91.8398438,58.9506836 
		50.2412109,58.9506836 	"/>
	<path fill="#FFFFFF" d="M51.8007812,106.8310547c0,2.7666016,2.2504883,5.0175781,5.0170898,5.0175781
		s5.0170898-2.2509766,5.0170898-5.0175781c0-1.9433594-2.7041016-7.4970703-5.0170898-11.7080078
		C54.5048828,99.3349609,51.8007812,104.8886719,51.8007812,106.8310547z"/>
	<polygon fill="#FFFFFF" points="79.7109375,49.0712891 68.1225586,49.0712891 67.987915,55.9506836 79.7109375,55.9506836 	"/>
	<path fill="#FFFFFF" d="M75,2.8292847C35.1412354,2.8292847,2.8292847,35.1412354,2.8292847,75
		S35.1412354,147.1707153,75,147.1707153S147.1707153,114.8587646,147.1707153,75S114.8587646,2.8292847,75,2.8292847z
		 M56.8178711,114.8486328c-4.4204102,0-8.0170898-3.5966797-8.0170898-8.0175781
		c0-3.8115234,5.5996094-13.5898438,6.7216797-15.5117188l1.2954102-2.2167969l1.2954102,2.2167969
		c1.1220703,1.921875,6.7216797,11.7001953,6.7216797,15.5117188
		C64.8349609,111.2519531,61.2382812,114.8486328,56.8178711,114.8486328z M102.7587891,82.3496094H88.8398438V70.9101562
		H65.3203125v15.5996094H47.2412109v-30.559082h17.74646l0.1925049-9.8793945h7.1153564l0.0733032-7.9199219H60.0551758v-3
		h27.559082v3H75.3690796l-0.0732422,7.9199219h7.4151001v9.8793945h6.1289062v-9.8793945h13.9189453V82.3496094z"/>
</g>
</svg>
